<svg xmlns="http://www.w3.org/2000/svg" width="132" height="88" fill="none"><mask id="a" width="132" height="86" x="0" y="0" maskUnits="userSpaceOnUse"><path fill="#C4C4C4" d="M0 0h132v85.099H0z"/></mask><g mask="url(#a)"><path fill="#83ECB2" d="M145.712 85.536c-52.533 2.56-30.871-36.483-81.609-38.693-50.738-2.209-29.205-69.478 8.38-53.763 37.584 15.715 54.444-1.691 64.744-21.315 10.299-19.624 43.952-24.337 65.238-.454s34.387 32.49 78.813 5.368 73.587-8.697 82.516 5.639c8.929 14.336 13.248 43.16-43.734 40.3-56.982-2.86-39.679 41.986-31.514 54.816 8.165 12.83-11.502 35.348-48.512 14.883-37.009-20.464-28.656-9.98-94.322-6.78z" opacity=".32"/><path fill="#83ECB2" d="M143.118 25.53c55.636-3.962 71.392 40.709 57.558 59.3-13.834 18.593-46.054-2.94-60.257-29.065-14.203-26.125-56.553-9.17-76.83 1.133s-49.05.55-35.105-29.458C42.429-2.57-35.751 6.09-13.583-23.04 4.15-46.345 38.897-34.036 55.984-12.834 73.071 8.37 87.482 29.49 143.118 25.53z" opacity=".32"/><path stroke="#83ECB2" d="M153.093 71.517c-13.074.636-21.471-1.318-27.518-4.596-6.05-3.282-9.799-7.915-13.545-12.773l-.602-.782c-3.542-4.605-7.195-9.353-12.876-13.123-6.016-3.99-14.268-6.864-27.022-7.42-12.567-.546-20.578-5.114-25-11.336-4.432-6.234-5.317-14.204-3.475-21.658 1.842-7.455 6.402-14.34 12.787-18.391 6.368-4.04 14.586-5.286 23.835-1.42 18.876 7.893 32.643 7.505 43.015 2.584 10.351-4.911 17.207-14.288 22.374-24.134 10.092-19.228 43.297-24.04 64.417-.344 10.632 11.93 19.335 20.192 31.022 21.969 11.68 1.776 26.2-2.944 48.425-16.512 22.122-13.505 40.387-15.64 54.198-12.663 13.826 2.979 23.238 11.088 27.634 18.147 4.436 7.122 7.628 17.696 2.842 26.09-4.771 8.368-17.653 14.872-46.114 13.444-14.299-.718-24.022 1.551-30.411 5.634-6.41 4.096-9.401 9.978-10.307 16.327-.902 6.33.266 13.129 2.157 19.13 1.893 6.005 4.524 11.252 6.588 14.495 3.888 6.11 1.211 14.645-7.126 19.219-8.318 4.563-22.295 5.138-40.711-5.045-18.516-10.239-25.784-12.795-36.677-12.326-4.019.173-8.54.758-14.301 1.504-1.98.256-4.107.53-6.41.815-9.02 1.112-20.798 2.365-37.199 3.165z"/></g></svg>